# Blender v2.83.0 OBJ File: 'full_target.blend'
# www.blender.org
mtllib full_target.mtl
o Cube
v 250.000000 1.000000 -250.000000
v 250.000000 -1.000000 -250.000000
v 250.000000 1.000000 250.000000
v 250.000000 -1.000000 250.000000
v -250.000000 1.000000 -250.000000
v -250.000000 -1.000000 -250.000000
v -250.000000 1.000000 250.000000
v -250.000000 -1.000000 250.000000
v -250.000000 1.000044 250.000000
v -250.000000 1.000000 -250.000000
v 250.000000 1.000000 250.000000
v 250.000000 0.999956 -250.000000
vt 0.333333 0.333333
vt 0.333333 0.000000
vt 0.666667 0.000000
vt 0.666667 0.333333
vt 0.666667 0.666667
vt 0.333333 0.666667
vt 0.333333 0.333333
vt 0.666667 0.333333
vt 1.000000 0.333333
vt 0.666667 0.333333
vt 0.666667 0.000000
vt 1.000000 0.000000
vt 0.333333 0.333333
vt 0.000000 0.333333
vt 0.000000 0.000000
vt 0.333333 0.000000
vt 0.333333 0.666667
vt 0.000000 0.666667
vt 0.000100 0.000100
vt 0.999900 0.000100
vt 0.999900 0.999900
vt 0.000100 0.999900
vn 0.0000 0.0000 1.0000
vn -1.0000 0.0000 0.0000
vn 0.0000 -1.0000 0.0000
vn 1.0000 0.0000 0.0000
vn 0.0000 0.0000 -1.0000
vn 0.0000 1.0000 -0.0000
usemtl Material
s off
f 4/1/1 3/2/1 7/3/1 8/4/1
f 8/5/2 7/6/2 5/7/2 6/8/2
f 6/9/3 2/10/3 4/11/3 8/12/3
f 2/13/4 1/14/4 3/15/4 4/16/4
f 6/17/5 5/18/5 1/14/5 2/13/5
usemtl grid
f 9/19/6 11/20/6 12/21/6 10/22/6
